# xmcd
#
# Track frame offsets: 
#        150
#        20421
#        33665
#        53145
#        65177
#        87162
#        99583
#        119905
#        143184
#        157229
#        174425
#        196556
#        211484
#        231204
#        250465
#        270085
#        286460
#        303929
#        329213
#
# Disc length: 4609 seconds
#
# Revision: 0
# Processed by: cddbd v1.4PL0 Copyright (c) Steve Scherf et al.
# Submitted via: ExactAudioCopy v0.90b4
#
DISCID=2111ff13
DTITLE=Speed Company - Mother Earth
DYEAR=2000
DGENRE=Rock
TTITLE0=Calidonia
TTITLE1=I'm ready
TTITLE2=Put the shoe
TTITLE3=CC baby
TTITLE4=Mother earth
TTITLE5=Divin duck
TTITLE6=Black cat bone
TTITLE7=I ain't superstitious
TTITLE8=Route 66
TTITLE9=Get out my life
TTITLE10=Cold, cold feeling
TTITLE11=I'm good
TTITLE12=I just wanna make love to you
TTITLE13=Boogie thing
TTITLE14=Respect yourself
TTITLE15=Come on
TTITLE16=Born under bad sign
TTITLE17=We all wanna boogie
TTITLE18=Jealousman
EXTD=
EXTT0=
EXTT1=
EXTT2=
EXTT3=
EXTT4=
EXTT5=
EXTT6=
EXTT7=
EXTT8=
EXTT9=
EXTT10=
EXTT11=
EXTT12=
EXTT13=
EXTT14=
EXTT15=
EXTT16=
EXTT17=
EXTT18=
PLAYORDER=
